<?xml version="1.0" encoding="UTF-8"?>
<svg width="700pt" height="700pt" version="1.1" viewBox="0 0 700 700" xmlns="http://www.w3.org/2000/svg">
 <g>
  <path d="m350 0c-140 0-280 36.051-280 105v245c0 42.875 56.352 77.352 154.52 94.676l6.125-35c-92.223-15.75-125.65-44.449-125.65-59.676v-68.949c39.898 26.773 107.98 42.176 173.43 48.301l3.1484-35c-120.4-11.027-176.57-46.375-176.57-66.852v-68.949c50.398 33.949 148.05 51.449 245 51.449s194.6-17.5 245-51.449v33.949h35v-87.5c0-68.949-140-105-280-105zm0 175c-149.62 0-245-41.477-245-70s95.375-70 245-70 245 41.477 245 70-95.375 70-245 70z"/>
  <path d="m472.5 245c-41.773 0-81.832 16.594-111.37 46.129-29.535 29.539-46.129 69.598-46.129 111.37s16.594 81.832 46.129 111.37c29.539 29.535 69.598 46.129 111.37 46.129s81.832-16.594 111.37-46.129c29.535-29.539 46.129-69.598 46.129-111.37s-16.594-81.832-46.129-111.37c-29.539-29.535-69.598-46.129-111.37-46.129zm0 280c-32.488 0-63.648-12.906-86.621-35.879s-35.879-54.133-35.879-86.621 12.906-63.648 35.879-86.621 54.133-35.879 86.621-35.879 63.648 12.906 86.621 35.879 35.879 54.133 35.879 86.621-12.906 63.648-35.879 86.621-54.133 35.879-86.621 35.879z"/>
  <path d="m490 332.5h-35v52.5h-52.5v35h52.5v52.5h35v-52.5h52.5v-35h-52.5z"/>
 </g>
</svg>
